<?xml version="1.0" encoding="utf-8"?>
<!-- Generator: Adobe Illustrator 25.2.0, SVG Export Plug-In . SVG Version: 6.00 Build 0)  -->
<svg version="1.2" baseProfile="tiny" id="Layer_1" xmlns="http://www.w3.org/2000/svg" xmlns:xlink="http://www.w3.org/1999/xlink"
	 x="0px" y="0px" viewBox="0 0 42 42" overflow="visible" xml:space="preserve">
<path fill-rule="evenodd" fill="#484C52" d="M3,30.1c-0.1,0.3-0.1,0.6,0,0.9c0.3-0.1,0.5-0.2,0.8-0.3c1.8-0.7,3.7-1.7,5.3-3
	c-1.4-2.8-1-5.4,0.3-7.6c1.1-1.9,3-3.6,4.8-5.3c0.4-0.4,0.9-0.8,1.3-1.2l0,0l0,0l0.1-0.1l0,0l2.7-2.3c0.5,0.8,1.3,1.7,2.4,2.5
	c-0.7,1-1.6,2-2.5,2.2c-0.8,0.2-1.8-0.8-2.5-1.8c-0.2,0.1-0.3,0.3-0.5,0.4l0,0c-2.1,1.9-4.2,3.7-5.3,5.7c-1.2,2.1-1.6,4.4-0.3,7.2
	c2.2-1.8,3.9-3.8,4.8-5.9c0.3-1,0.9-0.7,0.9,0.1c0,1.1,0.2,2.3,0.7,3.3c0.8,1.9,2.3,3.2,4.7,2.4c0.7-0.3,1.2-0.6,1.7-0.8
	c0.2-0.1,0.3-0.2,0.5-0.3c1.6-0.8,3.2-1.7,4.2-2.4c0,0,0,0,0,0c-0.3-0.8-0.7-1.5-1.2-2c-1-1.1-3-2.3-4.8-2.4c-0.8,0-1.5,0.3-2,0.8
	c-0.3,0.3-0.6,0.8-0.7,1.3c-0.1,0.5-0.1,1,0.3,1.1l0,0c0.3,0.1,0.6-0.1,1-0.2c0.3-0.1,0.6-0.3,0.9-0.5c0.2-0.1,0.3-0.2,0.4-0.2
	c0.7-0.3,1.4-0.7,2.1-0.6c1.5,0.1,2.7,1.3,3.1,2.6c0,0.1-0.2,0.2-0.3,0.2c0,0,0,0,0,0c0-0.1-0.3-0.5-0.8-0.7c-0.5-0.2-1.2,0-1.6,0.2
	c-0.4,0.2-0.8,0.4-1.3,0.7c-0.4,0.2-0.9,0.5-1.4,0.7c-0.9,0.4-1.6,0.6-2.4-0.1c-0.4-0.3-0.7-0.8-0.9-1.4c-0.5-1.7-0.7-5,1.1-6.1
	c2-1.2,4.4-0.1,6.1,1.2c1.4,1.1,2.6,2.9,3.2,4.5c0.1,0.1,0.1,0.3,0.1,0.4c0,0.8,0,1.8-0.1,2.6c0,0.2,0,0.4,0,0.6
	c-0.2,0.1-0.4,0.2-0.6,0.4c-0.7,0.4-1.4,0.8-2.1,1.2c-1.7,1-3.4,2.1-5.1,2.4c-3.5,0.8-5.6-1.6-5.9-5.1c-0.7,1.5-1.9,3-3.3,4.3
	c1,1.4,2.8,2.8,4.6,3.4c1.3,0.5,2.8,0.5,4.2,0.3c2.6-0.4,4.7-1.7,6.9-3.1c0.6-0.4,1.2-0.8,1.8-1.1c1.8-1.1,3.8-2.1,5.5-2v2.9
	c-0.6,0-1.7,0.1-2.1,0.3c-1.6,0.5-3,1.5-4.4,2.4c-0.2,0.2-0.5,0.3-0.7,0.5c-3.2,2.2-6.5,3.5-10.5,3.1c0-1.3-0.6-2-1.4-2.4
	c-1.5-0.8-3.2-2.2-4.2-3.7c-1.3,1.1-2.8,2-4.1,2.6l1.4,0.4c0.5,0.2,1,0.6,1.1,1.1l1,3.7c0.2,0.8,1.1,1.3,1.9,1.1l3.7-1
	c0.5-0.1,1.1,0,1.5,0.4l2.7,2.7c0.6,0.6,1.6,0.6,2.2,0l2.7-2.7c0.4-0.4,1-0.5,1.5-0.4l3.7,1c0.8,0.2,1.7-0.3,1.9-1.1l1-3.7
	c0.2-0.5,0.6-1,1.1-1.1l3.7-1c0.8-0.2,1.3-1.1,1.1-1.9l-1-3.7c-0.1-0.5,0-1.1,0.4-1.5l2.7-2.7c0.6-0.6,0.6-1.6,0-2.2l-2.7-2.7
	c-0.4-0.4-0.5-1-0.4-1.5l1-3.7c0.2-0.8-0.3-1.7-1.1-1.9l-3.7-1c-0.5-0.2-1-0.6-1.1-1.1l-1-3.7c-0.2-0.8-1.1-1.3-1.9-1.1l-3.7,1
	c-0.5,0.1-1.1,0-1.5-0.4l-2.7-2.7c-0.1-0.1-0.3-0.2-0.4-0.3c0,0.6,0,1.2-0.1,1.9c-0.1,0.4-0.2,0.8-0.3,1.1c-0.1,0.2-0.1,0.4-0.2,0.5
	c-0.1,0.2-0.2,0.4-0.2,0.5c-0.3,0.9-0.1,1.9,0.2,2.8c0.8,2,3.4,4.2,5.7,6.2c1.4,1.2,2.7,2.3,3.5,3.3c1.8,2.1,2.9,4.1,2.2,6.5
	c-0.3,1.2-1.1,2.1-2.5,3.3l-0.4-0.3c1.2-1.1,1.4-2.4,1-3.9c-0.4-1.7-1.4-2.9-2.1-3.8c-0.8-1-2.1-2.1-3.5-3.2c-2.4-2-5-4.2-5.7-6.3
	C18.8,7.5,19,6.1,20,4.7c0.4-0.6,0.6-0.9,0.8-1.5c0-0.1,0-0.1,0-0.2c0.1-0.8,0-1.6-0.3-2.5c-0.2,0.1-0.5,0.2-0.7,0.4l-2.7,2.7
	c-0.4,0.4-1,0.5-1.5,0.4l-3.7-1c-0.8-0.2-1.7,0.3-1.9,1.1l-1,3.7c-0.2,0.5-0.6,1-1.1,1.1l-3.7,1c-0.8,0.2-1.3,1.1-1.1,1.9l1,3.7
	c0.1,0.5,0,1.1-0.4,1.5l-2.7,2.7c-0.6,0.6-0.6,1.6,0,2.2l2.7,2.7c0.4,0.4,0.5,1,0.4,1.5L3,30.1z"/>
</svg>
